<svg xmlns="http://www.w3.org/2000/svg" width="24" height="24" fill="none"><path fill="#200E32" fill-rule="evenodd" d="M16.88 6.382C16.623 3.92 14.531 2 11.99 2A4.93 4.93 0 0 0 8.5 3.426a4.884 4.884 0 0 0-1.42 2.956h-.001c-1.782 0-3.278 1.301-3.699 3.56l-.76 5.87C1.971 20.11 3.992 22 7.948 22h8.097c3.658 0 5.845-2.13 5.396-5.952l-.786-6.066c-.503-2.288-1.961-3.6-3.704-3.6h-.072Zm-1.466 0a3.46 3.46 0 0 0-3.428-2.934 3.472 3.472 0 0 0-2.459 1.004 3.44 3.44 0 0 0-.981 1.93h6.868ZM7.079 7.83h9.873c1.022 0 1.92.808 2.272 2.4l.744 5.767c.442 3.069-1.03 4.555-3.922 4.555H7.949c-3.131 0-4.395-1.18-3.889-4.54l.757-5.845c.29-1.548 1.197-2.337 2.262-2.337Zm7.786 2.686c.402 0 .728.325.728.724 0 .367-.274.67-.63.717l-.098.007h-.044a.726.726 0 0 1-.728-.724c0-.366.274-.67.63-.717l.098-.007h.044Zm-4.928.724c0-.4-.326-.724-.727-.724h-.045l-.099.007a.725.725 0 0 0-.628.717c0 .4.325.724.727.724h.045l.098-.007a.725.725 0 0 0 .629-.717Z" clip-rule="evenodd"/></svg>