<svg width="24" height="24" viewBox="0 0 24 24" fill="#014B40" xmlns="http://www.w3.org/2000/svg">
<path fill-rule="evenodd" clip-rule="evenodd" d="M2.87782 2.51111L2.77637 2.5005C2.40719 2.487 2.07565 2.74808 2.0109 3.12222L2.00029 3.22366C1.98679 3.59285 2.24787 3.92438 2.622 3.98914L4.13101 4.25012L5.04554 15.1459L5.06446 15.3096C5.24846 16.5521 6.31711 17.4861 7.58991 17.4861H18.5019L18.6663 17.4809C19.8626 17.4045 20.8545 16.4998 21.0291 15.2979L21.9782 8.73954L21.9946 8.58889C22.0819 7.38982 21.132 6.34912 19.9089 6.34912H5.81201L5.57728 3.54739L5.55959 3.43654C5.49115 3.14822 5.25676 2.92285 4.95782 2.87111L2.87782 2.51111ZM7.47397 15.9798C6.9787 15.9256 6.58261 15.5279 6.54031 15.0208L5.93801 7.84912H19.9089L19.9971 7.85561C20.3128 7.90255 20.5409 8.19782 20.4936 8.52477L19.5446 15.0827L19.5208 15.2C19.4005 15.6585 18.985 15.9861 18.5019 15.9861H7.58991L7.47397 15.9798ZM5.90831 20.5854C5.90831 19.7493 6.58598 19.0704 7.42231 19.0704C8.25852 19.0704 8.93731 19.7492 8.93731 20.5854C8.93731 21.4217 8.25841 22.0994 7.42231 22.0994C6.5861 22.0994 5.90831 21.4216 5.90831 20.5854ZM17.1597 20.5854C17.1597 19.7492 17.8385 19.0704 18.6747 19.0704C19.5109 19.0704 20.1897 19.7492 20.1897 20.5854C20.1897 21.4217 19.5108 22.0994 18.6747 22.0994C17.8386 22.0994 17.1597 21.4217 17.1597 20.5854ZM17.6484 10.7951C17.6484 10.3809 17.3126 10.0451 16.8984 10.0451H14.1254L14.0236 10.052C13.6576 10.1016 13.3754 10.4154 13.3754 10.7951C13.3754 11.2093 13.7112 11.5451 14.1254 11.5451H16.8984L17.0002 11.5383C17.3663 11.4886 17.6484 11.1748 17.6484 10.7951Z"/>
</svg>
