<svg width="32" height="32" viewBox="0 0 32 32" fill="#014B40" xmlns="http://www.w3.org/2000/svg">
<path d="M15.5671 24.2886V29.7691C15.5671 30.0082 15.7609 30.2019 15.9999 30.2019C16.2389 30.2019 16.4326 30.0082 16.4326 29.7691V24.2891C16.2963 24.104 16.1427 23.885 15.9997 23.666C15.8569 23.8848 15.7034 24.1036 15.5671 24.2886Z"/>
<path d="M22.2875 23.4545C21.5294 23.4545 20.8181 23.252 20.203 22.8999V29.0142L22.0908 26.8006C22.1401 26.7427 22.2124 26.7094 22.2884 26.7094H22.2885C22.3645 26.7094 22.4367 26.7428 22.486 26.8007L24.372 29.0138V22.9C23.7569 23.252 23.0457 23.4545 22.2875 23.4545Z" />
<path d="M22.2876 15.5532C20.2523 15.5532 18.5964 17.209 18.5964 19.2443C18.5964 21.2796 20.2523 22.9354 22.2876 22.9354C24.3228 22.9354 25.9786 21.2795 25.9786 19.2443C25.9786 17.209 24.3228 15.5532 22.2876 15.5532ZM22.2142 21.3015C22.1257 21.4493 21.9019 21.4663 21.7919 21.3342L20.2768 19.5147C20.1851 19.4044 20.2 19.2407 20.3102 19.1489C20.4203 19.0571 20.5841 19.0723 20.6759 19.1823L21.9568 20.7206L24.0276 17.2634C24.1012 17.1404 24.2605 17.1003 24.3838 17.1741C24.5067 17.2477 24.5467 17.4072 24.473 17.5303C24.473 17.5303 22.2164 21.2978 22.2142 21.3015Z" />
<path d="M28.6191 9.23914C28.508 9.16021 27.7884 9.52063 27.5924 9.61113C25.4559 10.6057 23.0394 11.7329 20.9802 13.5711C19.8015 14.6246 18.7848 15.8844 17.9596 17.3136C17.8639 17.4868 17.6686 17.5899 17.4697 17.5899C17.0974 17.5899 16.8299 17.207 16.9466 16.8569C17.5802 15.0077 17.9081 13.1216 17.9228 11.2504C17.9486 8.18923 17.1603 5.36019 16.4641 2.86269C16.3776 2.55349 16.2886 2.24683 16.197 1.94346C16.1386 1.74997 15.8613 1.74997 15.8029 1.94346C15.7113 2.24683 15.6223 2.55349 15.5358 2.86269C14.8396 5.36018 14.0513 8.18923 14.0771 11.2504C14.0918 13.1216 14.4197 15.0077 15.0532 16.8569C15.174 17.2094 14.902 17.5899 14.5302 17.5899C14.3313 17.5899 14.136 17.4868 14.0402 17.3136C13.2151 15.8844 12.1984 14.6246 11.0197 13.5711C8.9605 11.7329 6.54402 10.6057 4.40751 9.61113C4.21147 9.52064 3.49188 9.16021 3.38081 9.23914C3.18582 9.37771 3.66568 9.95546 3.74814 10.0863C5.04846 12.1491 6.51822 14.4846 8.61791 16.3117C9.47989 17.0595 10.4634 17.7188 11.5428 18.2751C11.7169 18.3498 11.8448 18.5851 11.8448 18.7687C11.8448 19.1187 11.5112 19.3829 11.1707 19.3065C10.5813 19.2402 9.98455 19.2218 9.3878 19.2549C7.24759 19.3691 5.2879 20.139 3.56026 20.8205C3.56026 20.8205 2.96904 21.0292 3.0268 21.2114C3.06299 21.3256 3.3089 21.3812 3.40874 21.406C3.67897 21.4731 5.37416 21.8841 5.95738 21.9951C7.15118 22.2224 8.37098 22.3569 9.58671 22.2718C10.4376 22.2092 11.3106 22.0324 12.1763 21.7451C12.4512 21.6538 12.7641 21.7968 12.8688 22.0729C12.9536 22.2866 12.8946 22.5297 12.7252 22.6807C12.541 22.8465 12.3568 23.0307 12.18 23.2259C11.6377 23.8301 11.2043 24.5235 10.834 25.2438C10.6595 25.5831 9.92295 26.9333 10.0647 27.1605C10.2461 27.4511 11.4912 26.7069 11.8411 26.5191C12.8394 25.996 13.8745 25.4508 14.6002 24.6109C14.7622 24.4231 15.2227 23.8042 15.5284 23.2812C15.735 22.9277 16.2642 22.9281 16.4714 23.2811C16.7772 23.8042 17.2376 24.4231 17.3997 24.6109C18.0106 25.3179 18.8409 25.8154 19.6837 26.2674C19.6837 25.4946 19.6802 22.8144 19.641 22.6958C19.5997 22.571 19.4852 22.4543 19.4034 22.3546C19.0345 21.9047 18.6715 21.4768 18.4338 20.9388C18.1985 20.4063 18.0771 19.8263 18.0771 19.2442C18.0771 16.9226 19.9659 15.0339 22.2875 15.0339C22.9884 15.0339 23.6493 15.207 24.2313 15.5112C25.8908 13.8316 27.1344 11.8588 28.2517 10.0863C28.3342 9.95546 28.8141 9.37771 28.6191 9.23914Z" />
<path d="M28.4396 20.8204C27.7969 20.5669 27.1219 20.3012 26.4176 20.0615C26.263 20.844 25.8909 21.5489 25.3672 22.1111C25.593 22.0758 25.8183 22.0377 26.0425 21.9951C26.6257 21.884 27.2043 21.7502 27.7809 21.6087C28.0513 21.5423 28.9369 21.3255 28.9731 21.2113C29.0308 21.0292 28.4396 20.8204 28.4396 20.8204Z" />
</svg>
