<svg width="32" height="32" viewBox="0 0 32 32" fill="#014B40" xmlns="http://www.w3.org/2000/svg">
<path d="M7.46667 20.8033C7.46499 20.6856 7.50252 20.5708 7.57334 20.4769C8.86462 18.9532 10.9616 18.3833 12.8464 19.0438C12.8516 18.8119 12.8694 18.5804 12.8997 18.3505C12.8267 18.303 12.7579 18.2529 12.6821 18.2086C11.4326 17.4489 9.99565 17.0534 8.53334 17.0667C7.72699 17.0621 6.92461 17.1799 6.1536 17.4161C4.32184 18.0019 2.74602 19.1975 1.68854 20.8038C3.20161 23.1148 5.77114 24.5149 8.53334 24.5334C8.89457 24.5319 9.25533 24.5069 9.61334 24.4587C9.60427 24.4523 9.59307 24.4481 9.584 24.4417C8.3506 23.6243 7.56795 22.2794 7.46667 20.8033Z" />
<path d="M8.53335 16.0003C9.64804 15.9959 10.7539 16.1977 11.7952 16.5955C11.3974 15.5542 11.1956 14.4484 11.2 13.3337C11.2028 12.8218 11.2472 12.3109 11.3328 11.8062C9.58989 10.8522 7.56429 10.5497 5.61869 10.9529C5.25346 12.7522 5.48255 14.6214 6.27149 16.2793C7.01092 16.0926 7.77073 15.9989 8.53335 16.0003Z" />
<path d="M15.8262 14.4294C15.9387 14.39 16.0613 14.39 16.1739 14.4294C17.3827 14.9213 18.3328 15.8934 18.7968 17.1132C19.421 15.9517 19.743 14.6519 19.7334 13.3334C19.735 12.7647 19.6782 12.1972 19.5638 11.6401C19.5611 11.6294 19.5595 11.6182 19.5579 11.6076C19.0683 9.51031 17.7955 7.67957 16 6.49023C14.2048 7.68086 12.9322 9.5124 12.4427 11.6102C12.4415 11.6205 12.4397 11.6306 12.4374 11.6406C12.3226 12.1976 12.2654 12.7648 12.2667 13.3334C12.2571 14.6521 12.5792 15.952 13.2032 17.1137C13.6671 15.8937 14.6172 14.9213 15.8262 14.4294Z" />
<path d="M23.4667 16.0004C24.2294 15.9993 24.9892 16.0936 25.7285 16.2809C26.5191 14.621 26.7473 12.7488 26.3787 10.9476C24.4338 10.5483 22.4104 10.8506 20.6672 11.8009C20.753 12.3074 20.7975 12.82 20.8 13.3337C20.8043 14.4482 20.6027 15.5538 20.2053 16.595C21.2465 16.1977 22.3522 15.9961 23.4667 16.0004Z" />
<path d="M16 15.5122C14.6335 16.2056 13.8101 17.6452 13.9051 19.1746C13.9051 19.2813 13.9077 19.3767 13.9125 19.469C13.9317 19.4791 13.9472 19.4914 13.9659 19.5015C14.3233 19.6931 14.6571 19.9258 14.9605 20.1949L14.9909 20.2231C15.6903 20.8571 16.1846 21.6853 16.4107 22.6018C17.365 21.9554 17.9723 20.909 18.0603 19.7597C18.0843 19.566 18.0957 19.3709 18.0944 19.1757C18.1899 17.646 17.3667 16.206 16 15.5122Z" />
<path d="M11.6416 24.197C12.6121 23.2041 13.9682 22.6851 15.3536 22.7762C15.0458 21.6649 14.2489 20.7541 13.1882 20.3015C13.1848 20.2996 13.1814 20.2974 13.1781 20.2951C13.0266 20.2333 12.84 20.1597 12.6448 20.0957C11.2267 19.5387 9.61295 19.8843 8.54718 20.973C8.69576 22.0284 9.28952 22.9695 10.1781 23.5581C10.5418 23.8003 10.9377 23.9904 11.3541 24.1229C11.4581 24.1559 11.5472 24.173 11.6416 24.197Z" />
<path d="M19.9739 25.3625C19.7179 25.4033 19.4592 25.4254 19.2 25.4286C18.0834 25.4291 17.0027 25.0344 16.1493 24.3145C15.7474 25.4024 15.8634 26.6143 16.4645 27.6062C16.5602 27.7748 16.6651 27.9381 16.7787 28.0953C17.5885 29.3873 19.0961 30.0652 20.6 29.8137C21.3069 28.4493 21.1365 26.7956 20.1664 25.6041C20.1029 25.5145 20.0379 25.4403 19.9739 25.3625Z" />
<path d="M15.1947 23.8305C14.0476 23.7855 12.9436 24.2707 12.2011 25.1462C12.07 25.2897 11.9482 25.4413 11.8363 25.6001C10.8648 26.7924 10.6936 28.4476 11.4006 29.8134C12.9035 30.0646 14.41 29.3877 15.2203 28.0972C15.2843 28.0092 15.3323 27.9238 15.3878 27.8364C14.7436 26.5928 14.6731 25.1303 15.1947 23.8305Z" />
<path d="M25.8491 17.4166C25.0772 17.1802 24.2739 17.0622 23.4667 17.0667C22.008 17.054 20.5746 17.4481 19.3275 18.2048C19.248 18.2518 19.1787 18.3024 19.104 18.351C19.1344 18.5809 19.1522 18.8124 19.1573 19.0443C21.0416 18.386 23.1367 18.9569 24.4267 20.48C24.4972 20.5741 24.5347 20.6889 24.5333 20.8064C24.4304 22.295 23.633 23.6483 22.3808 24.4598C22.7408 24.5079 23.1035 24.5324 23.4667 24.5334C26.2299 24.5168 28.8003 23.1145 30.3099 20.8C29.252 19.1968 27.6782 18.003 25.8491 17.4166Z" />
<path d="M19.3515 20.0945C19.2517 20.1276 19.1637 20.1665 19.0699 20.2012C18.8716 21.583 18.0769 22.8082 16.896 23.5526C17.7904 24.2681 18.9646 24.5316 20.0789 24.2668C20.0933 24.2641 20.1072 24.2614 20.1216 24.2598C20.2983 24.2247 20.4727 24.1787 20.6437 24.1222C22.1244 23.729 23.2284 22.4914 23.4507 20.9756C22.388 19.8802 20.7703 19.5325 19.3515 20.0945Z" />
<path d="M2.6667 8.53369C2.37214 8.53369 2.13336 8.77247 2.13336 9.06702V10.1337C2.13336 10.4282 2.37214 10.667 2.6667 10.667C2.96125 10.667 3.20003 10.4282 3.20003 10.1337V9.06702C3.20003 8.77247 2.96125 8.53369 2.6667 8.53369Z" />
<path d="M2.6667 7.46683C2.96125 7.46683 3.20003 7.22805 3.20003 6.9335V5.86683C3.20003 5.57228 2.96125 5.3335 2.6667 5.3335C2.37214 5.3335 2.13336 5.57228 2.13336 5.86683V6.9335C2.13336 7.22805 2.37214 7.46683 2.6667 7.46683Z" />
<path d="M2.13333 8.00013C2.13333 7.70558 1.89455 7.4668 1.6 7.4668H0.533333C0.238781 7.4668 0 7.70558 0 8.00013C0 8.29468 0.238781 8.53346 0.533333 8.53346H1.6C1.89455 8.53346 2.13333 8.29468 2.13333 8.00013Z" />
<path d="M3.73335 8.53346H4.80001C5.09456 8.53346 5.33335 8.29468 5.33335 8.00013C5.33335 7.70558 5.09456 7.4668 4.80001 7.4668H3.73335C3.43879 7.4668 3.20001 7.70558 3.20001 8.00013C3.20001 8.29468 3.43879 8.53346 3.73335 8.53346Z" />
<path d="M21.7563 3.84398C21.9656 4.0461 22.2982 4.04321 22.5039 3.83749C22.7097 3.63176 22.7125 3.29912 22.5104 3.08985L21.7104 2.28985C21.5012 2.08773 21.1685 2.09062 20.9628 2.29635C20.7571 2.50207 20.7542 2.83471 20.9563 3.04398L21.7563 3.84398Z" />
<path d="M24.1563 6.24382C24.3655 6.44594 24.6982 6.44305 24.9039 6.23733C25.1096 6.0316 25.1125 5.69896 24.9104 5.48969L24.1104 4.68969C23.9765 4.55105 23.7782 4.49544 23.5917 4.54425C23.4052 4.59306 23.2596 4.73868 23.2108 4.92515C23.162 5.11162 23.2176 5.30992 23.3563 5.44382L24.1563 6.24382Z" />
<path d="M23.7333 4.00019C23.8747 4.00016 24.0104 3.94395 24.1104 3.84392L24.9104 3.04392C25.049 2.91001 25.1046 2.71172 25.0558 2.52525C25.007 2.33878 24.8614 2.19316 24.6749 2.14435C24.4884 2.09554 24.2901 2.15114 24.1562 2.28979L23.3562 3.08979C23.2038 3.24232 23.1581 3.47167 23.2407 3.67094C23.3232 3.8702 23.5176 4.00014 23.7333 4.00019Z" />
<path d="M21.3333 6.40009C21.4748 6.40006 21.6104 6.34385 21.7104 6.24382L22.5104 5.44382C22.6491 5.30992 22.7047 5.11162 22.6559 4.92515C22.607 4.73868 22.4614 4.59306 22.2749 4.54425C22.0885 4.49544 21.8902 4.55105 21.7563 4.68969L20.9563 5.48969C20.8038 5.64222 20.7582 5.87158 20.8407 6.07084C20.9232 6.2701 21.1177 6.40004 21.3333 6.40009Z" />
<path d="M30.1333 4.80029C29.1024 4.80029 28.2667 5.63603 28.2667 6.66696C28.2667 7.69789 29.1024 8.53363 30.1333 8.53363C31.1643 8.53363 32 7.69789 32 6.66696C32 6.17189 31.8033 5.6971 31.4533 5.34703C31.1032 4.99696 30.6284 4.80029 30.1333 4.80029ZM30.1333 7.46696C29.6915 7.46696 29.3333 7.10879 29.3333 6.66696C29.3333 6.22513 29.6915 5.86696 30.1333 5.86696C30.5752 5.86696 30.9333 6.22513 30.9333 6.66696C30.9333 7.10879 30.5752 7.46696 30.1333 7.46696Z" />
</svg>
