<svg width="32" height="32" viewBox="0 0 32 32" fill="#014B40" xmlns="http://www.w3.org/2000/svg">
<path d="M18.0338 18.8644C16.8392 18.8644 15.6645 18.9932 14.525 19.2428L16.4022 17.3656C20.5117 17.2344 24.3561 15.5731 27.2771 12.6521C30.3227 9.6065 32 5.55719 32 1.25C32 0.559625 31.4403 0 30.75 0C26.4428 0 22.3935 1.67731 19.3478 4.72288C16.4269 7.64388 14.7656 11.4882 14.6344 15.5977L12.6583 17.5738C12.9318 16.3839 13.073 15.1547 13.073 13.9036C13.073 9.56925 11.3876 5.49425 8.32728 2.42925C8.09278 2.19444 7.77453 2.0625 7.44272 2.0625C7.11091 2.0625 6.79266 2.19444 6.55816 2.42931C3.49785 5.49431 1.81247 9.56931 1.81247 13.9036C1.81247 17.8336 3.1981 21.5504 5.73785 24.4944L0.366033 29.8661C-0.122092 30.3543 -0.122092 31.1458 0.366033 31.6339C0.610158 31.8779 0.930095 32 1.24997 32C1.56985 32 1.88978 31.8779 2.13391 31.6339L7.51166 26.2561C10.4605 28.7652 14.1954 30.1256 18.0361 30.1253C19.035 30.1252 20.0418 30.0332 21.0428 29.8454C21.7213 29.7182 22.1683 29.065 22.041 28.3864C21.9137 27.7079 21.2602 27.2609 20.582 27.3883C16.5505 28.1444 12.4252 27.0671 9.30066 24.4943C14.3532 20.3289 21.715 20.3293 26.7676 24.4948C26.5069 24.71 26.2388 24.9152 25.9648 25.1093C25.4015 25.5084 25.2683 26.2886 25.6674 26.8519C26.0665 27.4152 26.8466 27.5483 27.41 27.1493C28.1533 26.6228 28.8593 26.0272 29.5082 25.3792C29.743 25.1447 29.8749 24.8265 29.8749 24.4946C29.8749 24.1628 29.743 23.8446 29.5082 23.6101C26.4432 20.5498 22.3682 18.8644 18.0338 18.8644ZM29.4372 2.56269C28.816 9.0295 23.6545 14.1909 17.1877 14.8123C17.809 8.3455 22.9704 3.184 29.4372 2.56269ZM7.44278 5.17C11.6082 10.2226 11.6082 17.5846 7.44272 22.6372C3.27722 17.5846 3.27722 10.2226 7.44278 5.17Z"/>
</svg>
